<?xml version="1.0" standalone="no"?>
<!DOCTYPE svg PUBLIC "-//W3C//DTD SVG 20010904//EN"
 "http://www.w3.org/TR/2001/REC-SVG-20010904/DTD/svg10.dtd">
<svg version="1.0" xmlns="http://www.w3.org/2000/svg"
 width="836.000000pt" height="836.000000pt" viewBox="0 0 836.000000 836.000000"
 preserveAspectRatio="xMidYMid meet">
<metadata>
Created by potrace 1.14, written by Peter Selinger 2001-2017
</metadata>
<g transform="translate(0.000000,836.000000) scale(0.100000,-0.100000)"
fill="#000000" stroke="none">
<path d="M0 4180 l0 -4180 4180 0 4180 0 0 4180 0 4180 -4180 0 -4180 0 0
-4180z m4680 2962 c500 -72 846 -225 1110 -491 108 -108 175 -198 239 -322
200 -382 248 -938 114 -1329 -66 -192 -163 -343 -327 -505 -133 -132 -254
-219 -423 -304 -57 -28 -103 -53 -103 -55 0 -3 24 -12 53 -22 225 -74 460
-240 597 -422 95 -128 185 -344 224 -542 29 -146 36 -273 36 -638 0 -399 10
-572 40 -724 39 -188 98 -319 193 -423 42 -47 47 -58 47 -99 l0 -46 -419 0
-419 0 -41 47 c-156 176 -201 424 -201 1102 0 207 -5 427 -11 490 -26 279
-125 498 -300 667 -142 135 -252 193 -484 252 -51 13 -188 16 -902 19 l-843 4
0 -1291 0 -1290 -400 0 -400 0 0 2976 0 2975 1233 -3 c1211 -4 1235 -4 1387
-26z"/>
<path d="M2860 5486 l0 -1056 653 0 c358 0 720 5 802 10 540 36 835 190 991
515 80 166 110 341 101 589 -5 165 -20 250 -66 376 -123 335 -378 525 -803
596 -90 16 -200 18 -890 21 l-788 4 0 -1055z"/>
</g>
</svg>
